<svg width="20" height="21" viewBox="0 0 20 21" fill="none" xmlns="http://www.w3.org/2000/svg">
<path d="M11.6407 20.8846C11.2506 20.8837 10.8712 20.7624 10.5585 20.5386L7.27914 18.1785C7.05557 18.0168 6.87407 17.8077 6.74887 17.5674C6.62367 17.3271 6.55817 17.0623 6.5575 16.7936V12.7311L1.05364 6.78994C0.518999 6.21178 0.169804 5.49773 0.0480424 4.73367C-0.0737188 3.96961 0.0371389 3.18806 0.367284 2.48302C0.697429 1.77797 1.23281 1.17945 1.90903 0.759423C2.58525 0.339398 3.37353 0.115754 4.17907 0.115387L15.8222 0.115387C16.6276 0.115989 17.4157 0.339802 18.0918 0.759919C18.7678 1.18004 19.303 1.77857 19.633 2.48357C19.963 3.18857 20.0737 3.97002 19.9519 4.73397C19.8301 5.49792 19.4809 6.21185 18.9464 6.78994L13.4446 12.7311V19.1537C13.4441 19.6126 13.2538 20.0526 12.9156 20.3771C12.5775 20.7015 12.119 20.8841 11.6407 20.8846ZM8.525 16.715L11.4767 18.8393V12.0135L17.4752 5.53648C17.7579 5.23039 17.9425 4.85248 18.0068 4.44814C18.0712 4.04381 18.0124 3.63026 17.8377 3.25717C17.663 2.88409 17.3798 2.56734 17.022 2.34498C16.6643 2.12262 16.2472 2.00411 15.8209 2.00368H4.17992C3.75354 2.00396 3.33631 2.12239 2.9784 2.34474C2.62049 2.56709 2.33711 2.88389 2.16235 3.25707C1.98758 3.63025 1.92886 4.04392 1.99323 4.44836C2.05761 4.85279 2.24235 5.23078 2.52525 5.53689L8.525 12.0135V16.715Z" fill="white"/>
</svg>
